<svg xmlns="http://www.w3.org/2000/svg" xmlns:xlink="http://www.w3.org/1999/xlink" x="0" y="0" enable-background="new 0 0 1000 1000" version="1.1" viewBox="0 0 1000 1000" xml:space="preserve"><metadata>Svg Vector Icons : http://www.onlinewebfonts.com/icon</metadata><g><path d="M883.5,990L635.2,734.7c0,0-142.7,71.6-227.3,71.6C188.2,806.3,10,628.1,10,408.1C10,188.2,188.1,10,407.8,10c219.9,0,398,178.2,398,398.1c0,82.1-67.6,221.6-67.6,221.6L990,883.5 M692,404.1c0-158.8-128.8-287.6-287.7-287.6c-159,0-287.8,128.8-287.8,287.6c0,158.9,128.8,287.7,287.8,287.7C563.2,691.8,692,562.9,692,404.1z M429.2,236.3L429.2,236.3c-118.3,0-192.9,74.7-192.9,193.1l0,0c-10,0-41.5,0-51.9,0l0,0c0-135.3,109.7-245,244.9-245l0,0C429.2,194.9,429.2,226.4,429.2,236.3z"/></g></svg>