<svg xmlns="http://www.w3.org/2000/svg" width="96" height="96" preserveAspectRatio="xMidYMid meet" version="1.0" viewBox="0 0 72 72"><metadata>Created by potrace 1.11, written by Peter Selinger 2001-2013</metadata><g fill="#000" stroke="none"><path d="M177 598 l-179 -120 86 -57 c47 -31 86 -59 86 -63 0 -3 -39 -32 -86 -63 l-86 -58 181 -119 181 -119 181 122 180 121 -82 54 c-46 30 -84 56 -86 58 -3 2 21 21 52 42 31 22 70 49 86 61 l30 21 -180 121 c-99 67 -181 121 -183 120 -2 0 -83 -54 -181 -121z" transform="translate(0.000000,72.000000) scale(0.100000,-0.100000)"/></g></svg>